<?xml version="1.0" encoding="UTF-8"?>
<svg width="96px" height="96px" viewBox="0 0 96 96" version="1.1" xmlns="http://www.w3.org/2000/svg" xmlns:xlink="http://www.w3.org/1999/xlink">
    <title>ICON/网络检测</title>
    <defs>
        <filter x="-23.8%" y="-20.2%" width="147.6%" height="147.6%" filterUnits="objectBoundingBox" id="filter-1">
            <feOffset dx="0" dy="2" in="SourceAlpha" result="shadowOffsetOuter1"></feOffset>
            <feGaussianBlur stdDeviation="2" in="shadowOffsetOuter1" result="shadowBlurOuter1"></feGaussianBlur>
            <feColorMatrix values="0 0 0 0 0   0 0 0 0 0   0 0 0 0 0  0 0 0 0.2 0" type="matrix" in="shadowBlurOuter1" result="shadowMatrixOuter1"></feColorMatrix>
            <feMerge>
                <feMergeNode in="shadowMatrixOuter1"></feMergeNode>
                <feMergeNode in="SourceGraphic"></feMergeNode>
            </feMerge>
        </filter>
        <linearGradient x1="50%" y1="0%" x2="50%" y2="100%" id="linearGradient-2">
            <stop stop-color="#E0FAFF" stop-opacity="0" offset="0%"></stop>
            <stop stop-color="#65E1FF" stop-opacity="0.182475484" offset="100%"></stop>
        </linearGradient>
        <circle id="path-3" cx="42" cy="42" r="42"></circle>
        <filter x="-16.1%" y="-12.5%" width="132.1%" height="132.1%" filterUnits="objectBoundingBox" id="filter-4">
            <feOffset dx="0" dy="3" in="SourceAlpha" result="shadowOffsetOuter1"></feOffset>
            <feGaussianBlur stdDeviation="4" in="shadowOffsetOuter1" result="shadowBlurOuter1"></feGaussianBlur>
            <feComposite in="shadowBlurOuter1" in2="SourceAlpha" operator="out" result="shadowBlurOuter1"></feComposite>
            <feColorMatrix values="0 0 0 0 0.145323157   0 0 0 0 0.725981295   0 0 0 0 1  0 0 0 0.20165162 0" type="matrix" in="shadowBlurOuter1"></feColorMatrix>
        </filter>
        <filter x="-14.3%" y="-10.7%" width="128.6%" height="128.6%" filterUnits="objectBoundingBox" id="filter-5">
            <feGaussianBlur stdDeviation="1" in="SourceAlpha" result="shadowBlurInner1"></feGaussianBlur>
            <feOffset dx="0" dy="2" in="shadowBlurInner1" result="shadowOffsetInner1"></feOffset>
            <feComposite in="shadowOffsetInner1" in2="SourceAlpha" operator="arithmetic" k2="-1" k3="1" result="shadowInnerInner1"></feComposite>
            <feColorMatrix values="0 0 0 0 0.999901831   0 0 0 0 1   0 0 0 0 0.999879897  0 0 0 1 0" type="matrix" in="shadowInnerInner1" result="shadowMatrixInner1"></feColorMatrix>
            <feGaussianBlur stdDeviation="2.5" in="SourceAlpha" result="shadowBlurInner2"></feGaussianBlur>
            <feOffset dx="0" dy="-3" in="shadowBlurInner2" result="shadowOffsetInner2"></feOffset>
            <feComposite in="shadowOffsetInner2" in2="SourceAlpha" operator="arithmetic" k2="-1" k3="1" result="shadowInnerInner2"></feComposite>
            <feColorMatrix values="0 0 0 0 0   0 0 0 0 0.302704334   0 0 0 0 1  0 0 0 0.182881815 0" type="matrix" in="shadowInnerInner2" result="shadowMatrixInner2"></feColorMatrix>
            <feMerge>
                <feMergeNode in="shadowMatrixInner1"></feMergeNode>
                <feMergeNode in="shadowMatrixInner2"></feMergeNode>
            </feMerge>
        </filter>
        <linearGradient x1="50%" y1="0%" x2="50%" y2="100%" id="linearGradient-6">
            <stop stop-color="#00FEFF" offset="0%"></stop>
            <stop stop-color="#0477FF" offset="100%"></stop>
        </linearGradient>
        <linearGradient x1="50%" y1="0%" x2="50%" y2="100%" id="linearGradient-7">
            <stop stop-color="#00FCFF" offset="0%"></stop>
            <stop stop-color="#0078FF" offset="100%"></stop>
        </linearGradient>
        <linearGradient x1="50%" y1="0%" x2="50%" y2="100%" id="linearGradient-8">
            <stop stop-color="#FF9295" offset="0%"></stop>
            <stop stop-color="#FF4B00" offset="100%"></stop>
        </linearGradient>
        <linearGradient x1="50%" y1="0%" x2="50%" y2="100%" id="linearGradient-9">
            <stop stop-color="#FF9295" offset="0%"></stop>
            <stop stop-color="#FF4B00" offset="100%"></stop>
        </linearGradient>
        <linearGradient x1="50%" y1="0%" x2="50%" y2="100%" id="linearGradient-10">
            <stop stop-color="#FF9295" offset="0%"></stop>
            <stop stop-color="#FF4B00" offset="100%"></stop>
        </linearGradient>
    </defs>
    <g id="ICON/网络检测" stroke="none" stroke-width="1" fill="none" fill-rule="evenodd">
        <g id="ICON/Data-Usage" filter="url(#filter-1)" transform="translate(6.000000, 6.000000)">
            <g id="椭圆形">
                <use fill="black" fill-opacity="1" filter="url(#filter-4)" xlink:href="#path-3"></use>
                <use fill="url(#linearGradient-2)" fill-rule="evenodd" xlink:href="#path-3"></use>
                <use fill="black" fill-opacity="1" filter="url(#filter-5)" xlink:href="#path-3"></use>
                <circle stroke-opacity="0.0586108228" stroke="#00AEFF" stroke-width="5.25" stroke-linejoin="square" cx="42" cy="42" r="39.375"></circle>
            </g>
            <ellipse id="椭圆形" stroke="url(#linearGradient-6)" stroke-width="1.05" opacity="0.200000003" cx="41.9328" cy="41.9664" rx="20.8446" ry="21.2898"></ellipse>
            <path d="M49.602023,48.6409626 C49.6315427,48.6068099 49.6610624,48.5706483 49.6886141,48.5364956 C49.7122299,48.5083699 49.7338777,48.4802441 49.7574935,48.4521184 C49.7830772,48.4199747 49.808661,48.387831 49.8342447,48.3536783 C49.8578605,48.3235436 49.8795083,48.2934089 49.9031241,48.2632742 C49.9267399,48.2311305 49.9523236,48.1989868 49.9759394,48.1668431 C49.9995552,48.1367084 50.021203,48.1045647 50.0428508,48.07443 C50.0664665,48.0422863 50.0900823,48.0101426 50.1136981,47.9759899 C50.1353459,47.9438462 50.1569937,47.9137115 50.1786415,47.8815678 C50.2022572,47.8474151 50.223905,47.8152715 50.2475208,47.7811188 C50.2691686,47.7489751 50.2888484,47.7188404 50.3104962,47.6866967 C50.332144,47.652544 50.3557598,47.6183913 50.3774076,47.5842387 C50.3970874,47.552095 50.4187352,47.5199513 50.438415,47.4878076 C50.4600628,47.4536549 50.4817106,47.4174933 50.5033584,47.3813316 C50.5230382,47.3491879 50.542718,47.3170442 50.5604298,47.2849005 C50.5820776,47.2487388 50.6037254,47.2105682 50.6253732,47.1723976 C50.643085,47.1422629 50.6607969,47.1101192 50.6785087,47.0799845 C50.7021245,47.0377959 50.7257403,46.9956073 50.749356,46.9514097 C50.7631319,46.9252929 50.7788757,46.8991762 50.7926516,46.8710504 L50.8989226,46.6661344 C50.9126985,46.6400177 50.9245064,46.6139009 50.9382822,46.5857752 C50.95993,46.5415776 50.9815778,46.49738 51.0032256,46.4511734 C51.0170015,46.4210387 51.0327453,46.388895 51.0465212,46.3587603 C51.066201,46.3185807 51.0839128,46.2763921 51.1035927,46.2362125 C51.1173685,46.2040688 51.1331124,46.1699161 51.1468883,46.1377724 C51.1646001,46.0975928 51.1823119,46.0574132 51.1980558,46.0172336 C51.2118316,45.9830809 51.2256075,45.9489282 51.2393834,45.9167845 C51.2551272,45.8766049 51.2728391,45.8364253 51.2885829,45.7962457 C51.3023588,45.762093 51.3141666,45.7279403 51.3279425,45.6937877 C51.3436864,45.6536081 51.3594302,45.6114195 51.3732061,45.5712398 C51.385014,45.5370872 51.3987898,45.5029345 51.4105977,45.4687818 C51.4263416,45.4265932 51.4401174,45.3844046 51.4538933,45.342216 C51.4657012,45.3080633 51.4775091,45.2739107 51.487349,45.239758 L51.5286766,45.1071653 C51.5385165,45.0750216 51.5483564,45.0428779 51.5601643,45.0087252 C51.5739402,44.9605096 51.587716,44.9143031 51.6014919,44.8660875 C51.6093638,44.8359528 51.6192038,44.8078271 51.6270757,44.7776924 C51.6447875,44.715414 51.6605313,44.6551445 51.6762752,44.5928662 C51.6802112,44.5767943 51.6841471,44.5607225 51.6900511,44.5446506 C51.7097309,44.4663004 51.7294107,44.3879501 51.7471225,44.3095998 C51.7530265,44.2834831 51.7589304,44.2593753 51.7628664,44.2332586 L51.79829,44.0705311 C51.804194,44.0383874 51.8100979,44.0062437 51.8160019,43.976109 C51.8258418,43.9278935 51.8356817,43.8796779 51.8435536,43.8294534 L51.8612655,43.7269954 C51.8691374,43.6807888 51.8770093,43.6325733 51.8848812,43.5863667 C51.8907852,43.5522141 51.8947211,43.5160524 51.9006251,43.4818997 C51.906529,43.4356932 51.9144009,43.3874776 51.9203049,43.3412711 C51.9242408,43.3051094 51.9301448,43.2709567 51.9340808,43.2347951 C51.9399847,43.1885885 51.9458886,43.140373 51.9498246,43.0941664 C51.9537606,43.0580048 51.9576965,43.0238521 51.9616325,42.9876904 L51.9734404,42.8430438 C51.9754084,42.8088911 51.9793443,42.7727295 51.9813123,42.7385768 C51.9852483,42.6883523 51.9872163,42.6381278 51.9911522,42.5879032 C51.9931202,42.5557596 51.9950882,42.5216069 51.9970561,42.4894632 L52.0029601,42.3207088 C52.0029601,42.2925831 52.0049281,42.2644573 52.0049281,42.2383406 C52.0068961,42.1539634 52.008864,42.0695862 52.008864,41.985209 C52.008864,38.9938365 50.751324,36.2977842 48.7479191,34.4173781 L48.7400472,34.4093421 C48.6869117,34.3591176 48.6318082,34.3109021 48.5786727,34.2606776 C48.5727688,34.2566596 48.5688328,34.2506326 48.5629289,34.2466147 L48.4035224,34.107995 C48.3956505,34.1019681 48.3877785,34.0939321 48.3799066,34.0879052 C48.3287391,34.0437076 48.2756036,33.99951 48.2224681,33.9573214 C48.2126282,33.9492855 48.2027883,33.9412496 48.1949164,33.9332137 C48.1437489,33.8910251 48.0925813,33.8508454 48.0394458,33.8106658 C48.0276379,33.8026299 48.017798,33.792585 48.0059902,33.7845491 C47.9548226,33.7463785 47.9036551,33.7061988 47.8524876,33.6680282 C47.8387117,33.6579833 47.8269039,33.6479384 47.813128,33.6378935 C47.7639285,33.6017318 47.7127609,33.5655702 47.6615934,33.5294085 C47.6458496,33.5193636 47.6320737,33.5073097 47.6163299,33.4972648 C47.5671303,33.4631122 47.5159628,33.4289595 47.4667633,33.3948068 C47.4510194,33.3827529 47.4333076,33.372708 47.4175638,33.3606541 C47.3683642,33.3285104 47.3191647,33.2963667 47.2679972,33.264223 C47.2502854,33.2521691 47.2325735,33.2421243 47.2148617,33.2300704 C47.1656622,33.1999357 47.1164626,33.1677919 47.0672631,33.1376572 L47.0082237,33.1014956 C46.9590241,33.0733699 46.9117926,33.0432351 46.8625931,33.0151094 C46.8409453,33.0030555 46.8212655,32.9910017 46.7996176,32.9789478 C46.7523861,32.950822 46.7031866,32.9247053 46.653987,32.8985885 C46.6323393,32.8865346 46.6087235,32.8744808 46.5870757,32.8624269 C46.5398441,32.8363101 46.4906446,32.8122023 46.443413,32.7880946 C46.4197973,32.7760407 46.3961815,32.7639868 46.3705977,32.7519329 C46.3233662,32.7278252 46.2761346,32.7037174 46.2289031,32.6816186 L46.1521518,32.6454569 L46.0104572,32.5791606 C45.9829054,32.5671067 45.9573217,32.5550528 45.9297699,32.5429989 C45.8825384,32.5229091 45.8372748,32.5028193 45.7900433,32.4827295 C45.7624915,32.4706756 45.7329718,32.4586217 45.7054201,32.4465678 C45.6601565,32.426478 45.6129249,32.4083972 45.5676614,32.3903164 C45.5381417,32.3782625 45.5086219,32.3682176 45.4791022,32.3561637 C45.4338387,32.3380828 45.3866071,32.322011 45.3413435,32.3039302 C45.3098558,32.2918763 45.2803361,32.2818314 45.2488484,32.2697775 L45.1130577,32.221562 C45.08157,32.2115171 45.0481143,32.1994632 45.0166266,32.1894183 C44.9713631,32.1753554 44.9260995,32.1592836 44.8828039,32.1452207 L44.7824369,32.115086 C44.7371733,32.1010231 44.6938777,32.0889692 44.6486141,32.0749064 C44.6131905,32.0648615 44.5797348,32.0548165 44.5443111,32.0467806 C44.5010155,32.0347267 44.455752,32.0226729 44.4124564,32.010619 C44.3770327,32.0005741 44.3396411,31.9925381 44.3042174,31.9824932 C44.2609218,31.9724483 44.2176262,31.9603945 44.1743306,31.9503496 C44.136939,31.9423136 44.0995474,31.9342777 44.0621557,31.9242328 C44.0188601,31.9141879 43.9775325,31.906152 43.9342369,31.8961071 C43.8948773,31.8880711 43.8555177,31.8800352 43.8161581,31.8740083 C43.7748305,31.8659724 43.7315349,31.8579364 43.6902073,31.8499005 C43.6508476,31.8418646 43.60952,31.8358376 43.5681924,31.8298107 C43.5268648,31.8237838 43.4855372,31.8157478 43.4442096,31.8097209 C43.402882,31.8036939 43.3595864,31.797667 43.3182588,31.7916401 C43.2769312,31.7856131 43.2375716,31.7795862 43.196244,31.7755682 C43.1529484,31.7695413 43.1096528,31.7655233 43.0643892,31.7594964 C43.0250296,31.7554784 42.98567,31.7494515 42.9463104,31.7454335 L42.8105196,31.7333796 C42.773128,31.7293617 42.7337684,31.7253437 42.6963767,31.7233347 C42.6471772,31.7193167 42.5979777,31.7173078 42.5507461,31.7132898 L42.4444751,31.7072629 C42.3874037,31.7052539 42.3323002,31.7032449 42.2752287,31.7012359 C42.245709,31.7012359 42.2181573,31.6992269 42.1886376,31.697218 C42.1040144,31.695209 42.0174232,31.6932 41.9328,31.6932 C41.8462088,31.6932 41.7615856,31.695209 41.6769624,31.697218 C41.6474427,31.697218 41.619891,31.6992269 41.5903713,31.7012359 C41.5332998,31.7032449 41.4781963,31.7052539 41.4211249,31.7072629 L41.3148539,31.7132898 C41.2656544,31.7173078 41.2164548,31.7193168 41.1692233,31.7233347 C41.1298636,31.7253437 41.092472,31.7293617 41.0550804,31.7333796 L40.9192896,31.7454335 C40.87993,31.7494515 40.8405704,31.7534694 40.8012108,31.7594964 C40.7579152,31.7655233 40.7146196,31.7695413 40.669356,31.7755682 C40.6280284,31.7815952 40.5886688,31.7876221 40.5473412,31.7916401 C40.5060136,31.797667 40.462718,31.803694 40.4213904,31.8097209 C40.3800628,31.8157478 40.3387352,31.8237838 40.2974076,31.8298107 C40.25608,31.8358376 40.2167203,31.8438736 40.1753927,31.8499005 C40.1340651,31.8579364 40.0907695,31.8659724 40.0494419,31.8740083 C40.0100823,31.8820442 39.9707227,31.8880712 39.9313631,31.8961071 C39.8880675,31.904143 39.8467399,31.9141879 39.8034443,31.9242328 C39.7660526,31.9322687 39.728661,31.9403047 39.6912694,31.9503496 C39.6479738,31.9603945 39.6046782,31.9704394 39.5613826,31.9824932 C39.5259589,31.9905292 39.4885673,32.0005741 39.4531436,32.010619 C39.409848,32.0226729 39.3645845,32.0347267 39.3212889,32.0467806 C39.2858652,32.0568255 39.2524095,32.0648615 39.2169859,32.0749064 C39.1717223,32.0869603 39.1284267,32.1010231 39.0831631,32.115086 L38.9827961,32.1452207 C38.9375325,32.1592836 38.892269,32.1733464 38.8489734,32.1894183 C38.8174857,32.1994632 38.78403,32.211517 38.7525423,32.221562 L38.6167516,32.2697775 C38.5852639,32.2798224 38.5557442,32.2918763 38.5242565,32.3039302 C38.4789929,32.320002 38.4317613,32.3380829 38.3864978,32.3561637 C38.3569781,32.3682176 38.3274583,32.3782625 38.2979386,32.3903164 C38.2507071,32.4083972 38.2054435,32.428487 38.1601799,32.4465678 C38.1326282,32.4586217 38.1031085,32.4706756 38.0755567,32.4827295 C38.0283252,32.5028193 37.9830616,32.5229091 37.9358301,32.5429989 C37.9082783,32.5550528 37.8826946,32.5671067 37.8551428,32.5791606 L37.7134482,32.6454569 L37.6366969,32.6816186 C37.5894654,32.7037174 37.5422338,32.7278252 37.4950023,32.7519329 C37.4713865,32.7639868 37.4477707,32.7760407 37.422187,32.7880946 C37.3749554,32.8122023 37.3257559,32.8383191 37.2785243,32.8624269 C37.2549086,32.8744808 37.2332608,32.8865346 37.211613,32.8985885 C37.1624134,32.9247053 37.1151819,32.952831 37.0659824,32.9789478 C37.0443346,32.9910017 37.0246547,33.0030555 37.0030069,33.0151094 C36.9538074,33.0432351 36.9046079,33.0713609 36.8554084,33.1014956 C36.8357285,33.1135495 36.8160487,33.1256034 36.7963689,33.1356483 C36.7471694,33.165783 36.6979698,33.1959177 36.6487703,33.2280614 C36.6310585,33.2401153 36.6133467,33.2501602 36.5956348,33.2622141 C36.5464353,33.2943577 36.4952678,33.3265014 36.4460683,33.3586451 C36.4303244,33.3686901 36.4126126,33.3807439 36.3968687,33.3927978 C36.3457012,33.4269505 36.2965017,33.4611032 36.2473021,33.4952558 C36.2315583,33.5053008 36.2177824,33.5153457 36.2020386,33.5273995 C36.1508711,33.5635612 36.1016715,33.5997228 36.050504,33.6358845 C36.0367281,33.6459294 36.0249203,33.6559743 36.0111444,33.6660192 C35.9599769,33.7041899 35.9088094,33.7423605 35.8576419,33.7825401 C35.845834,33.790576 35.8359941,33.8006209 35.8241862,33.8086568 C35.7730187,33.8488365 35.7198832,33.8910251 35.6687157,33.9312047 C35.6588757,33.9392406 35.6490358,33.9472765 35.6411639,33.9553125 C35.5880284,33.9975011 35.5368609,34.0416986 35.4837254,34.0858962 C35.4758535,34.0919232 35.4679816,34.0999591 35.4601096,34.105986 L35.3007032,34.2446057 C35.2947992,34.2486237 35.2908632,34.2546506 35.2849593,34.2586686 C35.2298558,34.3068841 35.1767204,34.3571086 35.1235848,34.4073331 L35.1157129,34.4153691 C33.11034,36.2957752 31.8528,38.9918275 31.8528,41.9832 C31.8528,42.0675772 31.854768,42.1519544 31.856736,42.2363316 C31.856736,42.2644573 31.8587039,42.2925831 31.8587039,42.3186998 L31.8646079,42.4874542 C31.8665759,42.5195979 31.8685439,42.5537506 31.8705118,42.5858943 C31.8724798,42.6361188 31.8764158,42.6863433 31.8803517,42.7365678 C31.8823197,42.7707205 31.8862557,42.8068821 31.8882237,42.8410348 L31.9000316,42.9856814 C31.9039675,43.0218431 31.9079035,43.0559958 31.9118394,43.0921574 C31.9177434,43.140373 31.9216794,43.1865795 31.9275833,43.2327861 C31.9315192,43.2689478 31.9354552,43.3031004 31.9413592,43.3392621 C31.9472631,43.3854686 31.9531671,43.4336842 31.961039,43.4798907 C31.9669429,43.5140434 31.9708789,43.5502051 31.9767828,43.5843577 C31.9846547,43.6325733 31.9925267,43.6787798 32.0003986,43.7269954 L32.0181104,43.8294534 C32.0259824,43.877669 32.0358223,43.9258845 32.0456622,43.976109 C32.0515661,44.0082527 32.05747,44.0403964 32.063374,44.0705311 L32.0987977,44.2332586 C32.1047016,44.2593753 32.1086376,44.2834831 32.1145415,44.3095998 C32.1322534,44.3879501 32.1519332,44.4663003 32.171613,44.5446506 C32.1755489,44.5607225 32.1794849,44.5767943 32.1853888,44.5928662 C32.2011327,44.6551446 32.2168765,44.717423 32.2345884,44.7776924 C32.2424603,44.8078271 32.2523002,44.8359528 32.2601721,44.8660875 C32.273948,44.9143031 32.2877238,44.9625186 32.3014997,45.0087252 C32.3113396,45.0408689 32.3211795,45.0730126 32.3310195,45.1071653 L32.3723471,45.239758 C32.384155,45.2739106 32.3959628,45.3080633 32.4058027,45.340207 C32.4195786,45.3823956 32.4353225,45.4245842 32.4490983,45.4667728 C32.4609062,45.5009255 32.4727141,45.5350782 32.48649,45.5692309 C32.5022338,45.6094105 32.5160097,45.6515991 32.5317535,45.6917787 C32.5455294,45.7259314 32.5573373,45.760084 32.5711132,45.7942367 C32.586857,45.8344163 32.6026009,45.8745959 32.6203127,45.9147756 C32.6340886,45.9489282 32.6478644,45.9830809 32.6616403,46.0152246 C32.6793521,46.0554042 32.695096,46.0955838 32.7128078,46.1357634 C32.7265837,46.1679071 32.7423275,46.2020598 32.7561034,46.2342035 C32.7738152,46.2743831 32.793495,46.3165717 32.8112069,46.3567513 C32.8249827,46.388895 32.8407266,46.4190298 32.8545025,46.4511734 C32.8761502,46.495371 32.897798,46.5395686 32.9194458,46.5857752 C32.9332217,46.6118919 32.9450296,46.6380087 32.9588055,46.6661344 L33.0650765,46.8710504 C33.0788523,46.8971672 33.0945962,46.923284 33.108372,46.9514097 C33.1319878,46.9935983 33.1536356,47.0357869 33.1792194,47.0779755 C33.1969312,47.1081102 33.214643,47.1402539 33.2323549,47.1703886 C33.2540026,47.2085592 33.2756505,47.2447209 33.2972982,47.2828915 C33.3169781,47.3150352 33.3366579,47.3471789 33.3543697,47.3793226 C33.3760175,47.4154843 33.3976653,47.4496369 33.4193131,47.4857986 C33.4389929,47.5179423 33.4606407,47.550086 33.4803205,47.5822297 C33.5019683,47.6163823 33.5236161,47.650535 33.5472319,47.6846877 C33.5688796,47.7168314 33.5885595,47.7489751 33.6102073,47.7791098 C33.6318551,47.8132625 33.6554708,47.8454062 33.6790866,47.8795588 C33.7007344,47.9117025 33.7223822,47.9418373 33.74403,47.9739809 C33.7676458,48.0061246 33.7912615,48.0402773 33.8148773,48.072421 C33.8365251,48.1025557 33.8601409,48.1346994 33.8817887,48.1648341 C33.9054044,48.1969778 33.9309882,48.2291215 33.954604,48.2612652 C33.9782198,48.2913999 33.9998676,48.3215346 34.0234833,48.3516693 C34.0490671,48.383813 34.0746508,48.4179657 34.1002346,48.4501094 C34.1238504,48.4782351 34.1454982,48.5063609 34.1691139,48.5364956 C34.1986336,48.5726572 34.2261854,48.6068099 34.2557051,48.6409626 C34.474151,48.9021301 34.7044048,49.1532527 34.9484345,49.3923214 C35.003538,49.4445549 35.0566735,49.4987974 35.1137449,49.5510309 C35.1176809,49.5530399 35.1196489,49.5570579 35.1235848,49.5590669 C35.1767203,49.6092914 35.2298558,49.6575069 35.2849593,49.7077314 C35.2908633,49.7117494 35.2947992,49.7177763 35.3007032,49.7217943 C35.3538387,49.7680009 35.4050062,49.8142074 35.4581417,49.860414 C35.4660136,49.8664409 35.4738855,49.8744769 35.4817574,49.8805038 C35.532925,49.9247014 35.5860604,49.96689 35.637228,50.0110875 C35.6470679,50.0191235 35.6569078,50.0271594 35.6647797,50.0351953 C35.7159472,50.0773839 35.7671147,50.1175635 35.8182822,50.1577432 C35.8300901,50.1657791 35.841898,50.175824 35.8537059,50.1838599 C35.9048734,50.2220305 35.9560409,50.2622101 36.0072084,50.3003808 C36.0209843,50.3104257 36.0327922,50.3204706 36.0465681,50.3305155 C36.0957676,50.3666772 36.1469351,50.4028388 36.1981026,50.4390005 C36.2138465,50.4490454 36.2276223,50.4610992 36.2433662,50.4711442 C36.2925657,50.5052968 36.3437332,50.5394495 36.3929328,50.5736022 C36.4086766,50.5856561 36.4263884,50.595701 36.4421323,50.6077549 L36.5897309,50.7041859 C36.6074427,50.7162398 36.6251545,50.7282937 36.6448344,50.7383386 L36.7924329,50.8287428 L36.8514724,50.8649044 C36.9006719,50.8930301 36.9479035,50.9231649 36.997103,50.9512906 C37.0187508,50.9633445 37.0384306,50.9753983 37.0600784,50.9874522 C37.10731,51.015578 37.1565095,51.0416947 37.205709,51.0678115 C37.2293248,51.0798654 37.2509726,51.0919192 37.2745884,51.1039731 C37.3218199,51.1300899 37.3690515,51.1541977 37.418251,51.1783054 C37.4418668,51.1903593 37.4654825,51.2024132 37.4910663,51.2144671 C37.5382979,51.2385748 37.5855294,51.2606736 37.6327609,51.2847814 L37.7095122,51.3209431 L37.8512069,51.3872394 C37.8787586,51.3992933 37.9043424,51.4113472 37.9318941,51.4234011 C37.9791257,51.4434909 38.0243892,51.4635807 38.0716208,51.4836705 C38.0991725,51.4957244 38.1286922,51.5077783 38.156244,51.5198322 C38.2015075,51.539922 38.2487391,51.5580028 38.2959706,51.5760836 C38.3254903,51.5881375 38.3550101,51.5981824 38.3845298,51.6102363 C38.4297934,51.6283172 38.4770249,51.646398 38.5222885,51.6624698 C38.5537762,51.6745237 38.5832959,51.6845686 38.6147836,51.6966225 L38.7505743,51.744838 C38.782062,51.7548829 38.8155177,51.7669368 38.8470054,51.7769817 C38.892269,51.7910446 38.9355645,51.8071164 38.9808281,51.8211793 L39.0811951,51.851314 C39.1244907,51.8653769 39.1697543,51.8774308 39.2150179,51.8914936 C39.2504415,51.9015385 39.2838972,51.9115835 39.3193209,51.9196194 C39.3626165,51.9316733 39.4078801,51.9437271 39.4511756,51.955781 C39.4865993,51.9658259 39.5239909,51.9738619 39.5594146,51.9839068 C39.6027102,51.9939517 39.6460058,52.0060055 39.6893014,52.0160504 C39.726693,52.0240864 39.7640847,52.0321223 39.8014763,52.0421672 C39.8447719,52.0522121 39.8860995,52.060248 39.9293951,52.0702929 C39.9687547,52.0783289 40.0081143,52.0863648 40.045506,52.0923917 C40.0868336,52.1004276 40.1301292,52.1084636 40.1714568,52.1164995 C40.2108164,52.1245354 40.252144,52.1305624 40.2934716,52.1365893 C40.3347992,52.1426162 40.3761268,52.1506522 40.4174544,52.1566791 C40.458782,52.1627061 40.5020776,52.168733 40.5434052,52.1747599 C40.5847328,52.1807869 40.6240925,52.1868138 40.6654201,52.1908318 C40.7087157,52.1968587 40.7520112,52.2008767 40.7972748,52.2069036 C40.8366344,52.2109216 40.8759941,52.2169485 40.9153537,52.2209665 L41.0511444,52.2330204 C41.088536,52.2370383 41.1278957,52.2410563 41.1652873,52.2430653 C41.2144868,52.2470833 41.2636864,52.2490922 41.3109179,52.2531102 L41.4171889,52.2591371 C41.4742604,52.2611461 41.5293638,52.2631551 41.5864353,52.2651641 C41.615955,52.2651641 41.6435068,52.2671731 41.6730265,52.269182 C41.7576497,52.271191 41.8442408,52.2732 41.928864,52.2732 C42.0154552,52.2732 42.1000784,52.271191 42.1847016,52.269182 C42.2142213,52.269182 42.2417731,52.2671731 42.2712928,52.2651641 C42.3283642,52.2631551 42.3834677,52.2611461 42.4405392,52.2591371 L42.5468101,52.2531102 C42.5960097,52.2490922 42.6452092,52.2470832 42.6924408,52.2430653 C42.7318004,52.2410563 42.769192,52.2370383 42.8065837,52.2330204 L42.9423744,52.2209665 C42.981734,52.2169485 43.0210936,52.2129306 43.0604533,52.2069036 C43.1037489,52.2008767 43.1470444,52.1968587 43.192308,52.1908318 C43.2336356,52.1848048 43.2729952,52.1787779 43.3143228,52.1747599 C43.3556505,52.168733 43.398946,52.162706 43.4402736,52.1566791 C43.4816013,52.1506522 43.5229289,52.1426162 43.5642565,52.1365893 C43.6055841,52.1305624 43.6449437,52.1225264 43.6862713,52.1164995 C43.7275989,52.1084636 43.7708945,52.1004276 43.8122221,52.0923917 C43.8515817,52.0843558 43.8909414,52.0783288 43.928333,52.0702929 C43.9716286,52.062257 44.0129562,52.0522121 44.0562518,52.0421672 C44.0936434,52.0341313 44.1310351,52.0260953 44.1684267,52.0160504 C44.2117223,52.0060055 44.2550179,51.9959606 44.2983135,51.9839068 C44.3337371,51.9758708 44.3711288,51.9658259 44.4065524,51.955781 C44.449848,51.9437271 44.4951116,51.9316733 44.5384072,51.9196194 C44.5738308,51.9095745 44.6072865,51.9015385 44.6427102,51.8914936 C44.6879738,51.8794397 44.7312694,51.8653769 44.7765329,51.851314 L44.8769,51.8211793 C44.9221635,51.8071164 44.9674271,51.7930536 45.0107227,51.7769817 C45.0422104,51.7669368 45.0756661,51.754883 45.1071538,51.744838 L45.2429445,51.6966225 C45.2744322,51.6865776 45.3039519,51.6745237 45.3354396,51.6624698 C45.3807032,51.646398 45.4279347,51.6283171 45.4731983,51.6102363 C45.502718,51.5981824 45.5322377,51.5881375 45.5617574,51.5760836 C45.608989,51.5580028 45.6542526,51.537913 45.7014841,51.5198322 C45.7290358,51.5077783 45.7585556,51.4957244 45.7861073,51.4836705 C45.8333388,51.4635807 45.8805704,51.4434909 45.925834,51.4234011 C45.9533857,51.4113472 45.9789695,51.3992933 46.0065212,51.3872394 L46.1482159,51.3209431 L46.2249671,51.2847814 C46.2721987,51.2626826 46.3194302,51.2385748 46.3666618,51.2144671 C46.3902775,51.2024132 46.4158613,51.1903593 46.4394771,51.1783054 C46.4867086,51.1541977 46.5359082,51.1280809 46.5831397,51.1039731 C46.6067555,51.0919192 46.6284033,51.0798654 46.6520191,51.0678115 C46.7012186,51.0416947 46.7484501,51.015578 46.7976497,50.9874522 C46.8192974,50.9753983 46.8389773,50.9633445 46.8606251,50.9512906 C46.9098246,50.9231649 46.9590241,50.8950391 47.0062557,50.8649044 L47.0652951,50.8287428 L47.2128937,50.7383386 C47.2306055,50.7262847 47.2483174,50.7142309 47.2679972,50.7041859 L47.4155958,50.6077549 C47.4313396,50.5977099 47.4490515,50.5856561 47.4647953,50.5736022 C47.5139948,50.5394495 47.5651624,50.5052968 47.6143619,50.4711442 C47.6301058,50.4610992 47.6438816,50.4490454 47.6596255,50.4390005 C47.710793,50.4028388 47.7599925,50.3666772 47.81116,50.3305155 C47.8249359,50.3204706 47.8367438,50.3104257 47.8505196,50.3003808 C47.9016872,50.2622101 47.9528547,50.2240395 48.0040222,50.1838599 C48.0158301,50.175824 48.0276379,50.1657791 48.0394458,50.1577432 C48.0906134,50.1175635 48.1437488,50.0773839 48.1929484,50.0351953 C48.2027883,50.0271594 48.2126282,50.0191235 48.2205001,50.0110875 C48.2736356,49.9688989 48.3248031,49.9247014 48.3759706,49.8805038 C48.3838426,49.8744768 48.3917145,49.8664409 48.3995864,49.860414 C48.4527219,49.8142074 48.5058574,49.7680009 48.5570249,49.7217943 C48.5629289,49.7177763 48.5668648,49.7117494 48.5727688,49.7077314 C48.6278723,49.6595159 48.6810077,49.6092914 48.7341432,49.5590669 C48.7380792,49.5570579 48.7400472,49.5530399 48.7439831,49.5510309 C48.7990866,49.4987974 48.8541901,49.4465639 48.9092936,49.3923214 C49.1533232,49.1552617 49.3835771,48.9041391 49.602023,48.6409626 L49.602023,48.6409626 Z M51.1035927,42.6823254 C51.1016247,42.714469 51.0976887,42.7486217 51.0957207,42.7807654 L51.0839128,42.9133581 C51.0799769,42.9475108 51.0760409,42.9816635 51.0740729,43.0158162 C51.070137,43.0580048 51.064233,43.1001934 51.0602971,43.142382 C51.0563611,43.1765346 51.0524251,43.2106873 51.0465212,43.24484 C51.0406173,43.2870286 51.0347133,43.3272082 51.0288094,43.3673878 C51.0229054,43.4015405 51.0189695,43.4377021 51.0130655,43.4718548 C51.0071616,43.5120344 50.9992896,43.5522141 50.9933857,43.5923937 C50.9874818,43.6265463 50.9815778,43.662708 50.9756739,43.6968607 C50.967802,43.7370403 50.961898,43.7772199 50.9540261,43.8153906 C50.9481221,43.8495432 50.9402502,43.8857049 50.9323783,43.9198575 C50.9245064,43.9600372 50.9166344,43.9982078 50.9067945,44.0363785 C50.8989226,44.0705311 50.8910507,44.1046838 50.8831788,44.1408454 C50.8733388,44.1790161 50.8654669,44.2191957 50.855627,44.2573664 C50.8477551,44.291519 50.8398832,44.3256717 50.8300433,44.3598244 C50.8202033,44.397995 50.8103634,44.4361656 50.7985556,44.4763452 C50.7887157,44.5104979 50.7808437,44.5446506 50.7710038,44.5767943 C50.7591959,44.6149649 50.749356,44.6531356 50.7375482,44.6913062 C50.7277082,44.7254589 50.7178683,44.7576026 50.7080284,44.7917553 C50.6962205,44.8299259 50.6844127,44.8680965 50.6706368,44.9062672 C50.6607969,44.9384108 50.650957,44.9705545 50.6391491,45.0047072 C50.6253732,45.0448868 50.6115974,45.0850665 50.5978215,45.1232371 C50.5879816,45.1533718 50.5761737,45.1835065 50.5663338,45.2136412 C50.542718,45.2819466 50.5171342,45.348243 50.4915505,45.4165483 C50.4797426,45.448692 50.4659667,45.4828447 50.4521909,45.5149884 C50.438415,45.55115 50.4246391,45.5853027 50.4088953,45.6214643 C50.3951194,45.655617 50.3793756,45.6897697 50.3655997,45.7239224 C50.3518238,45.7560661 50.338048,45.7902187 50.3223041,45.8223624 C50.3065603,45.8565151 50.2908164,45.8926768 50.2750726,45.9268294 C50.2612967,45.9589731 50.2455528,45.9911168 50.231777,46.0232605 C50.2160331,46.0574132 50.1983213,46.0935748 50.1825774,46.1277275 C50.1668336,46.1578622 50.1530577,46.190006 50.1373139,46.2201406 C50.119602,46.2542933 50.1018902,46.288446 50.0841784,46.3246077 L50.0369468,46.4150118 C50.019235,46.4491645 49.9995552,46.4833171 49.9818433,46.5194788 C49.9660995,46.5496135 49.9503557,46.5777392 49.9326438,46.607874 L49.8736044,46.710332 C49.8578605,46.7384577 49.8401487,46.7685924 49.8244049,46.7967182 C49.804725,46.8308708 49.7850452,46.8650235 49.7633974,46.8991762 C49.7456856,46.9273019 49.7299417,46.9554276 49.7122299,46.9835534 C49.6905821,47.017706 49.6709023,47.0518587 49.6492545,47.0860114 C49.6315427,47.1141371 49.6138309,47.1402539 49.596119,47.1663706 C49.5744712,47.2005233 49.5528234,47.234676 49.5292077,47.2668197 L49.4760722,47.3451699 L49.4052248,47.4476279 C49.387513,47.4717357 49.3698012,47.4958435 49.3520893,47.5219603 C49.3284736,47.5561129 49.3028898,47.5902656 49.2773061,47.6244183 C49.2595942,47.646517 49.2418824,47.6706248 49.2261385,47.6927236 C49.2005548,47.7268763 49.173003,47.763038 49.1474193,47.7971906 C49.1316754,47.8172804 49.1159316,47.8373702 49.1001877,47.8554511 C49.070668,47.8916127 49.0411483,47.9297834 49.0116286,47.965945 C49.0057246,47.9739809 48.9998207,47.9820169 48.9919488,47.9880438 C48.9092936,48.0884929 48.8246704,48.1869329 48.7400472,48.285373 C48.0453498,47.9498732 47.2601253,47.6666069 46.4020854,47.445619 C46.8566891,46.0011617 47.1322065,44.3075909 47.1755021,42.4774093 L51.1114646,42.4774093 C51.1094966,42.4995081 51.1094966,42.5236158 51.1075286,42.5457146 C51.1094966,42.5899122 51.1075286,42.6361188 51.1035927,42.6823254 L51.1035927,42.6823254 Z M46.9255684,49.8644319 C46.8744009,49.8985846 46.8232334,49.9307283 46.7720659,49.962872 C46.762226,49.9688989 46.7543541,49.9749259 46.7445142,49.9809528 C46.6972826,50.0110875 46.6480831,50.0412223 46.5988836,50.069348 C46.5870757,50.0773839 46.5732998,50.0854198 46.5614919,50.0914468 C46.5142604,50.1195725 46.4689968,50.1456893 46.4217652,50.173815 C46.4060214,50.1818509 46.3922455,50.1918958 46.3765017,50.1999318 C46.3312381,50.2260485 46.2840065,50.2521653 46.238743,50.276273 C46.2229991,50.2863179 46.2052873,50.2943539 46.1895435,50.3023898 L46.0537528,50.3747131 C46.0360409,50.384758 46.0183291,50.3927939 46.0006173,50.4028388 C45.9553537,50.4249376 45.9100901,50.4490454 45.8648266,50.4711442 C45.8471147,50.4791801 45.8274349,50.489225 45.8097231,50.4972609 C45.7644595,50.5193597 45.7191959,50.5414585 45.6719644,50.5615483 C45.6542525,50.5695842 45.6345727,50.5776202 45.6168609,50.5856561 C45.5696294,50.6057459 45.5243658,50.6278447 45.4771342,50.6479345 C45.4594224,50.6559704 45.4436786,50.6619973 45.4259667,50.6700333 L45.2783681,50.7303027 C45.2665603,50.7343207 45.2547524,50.7403476 45.2429445,50.7443656 C45.0697621,50.8126709 44.8946118,50.8749493 44.7155255,50.9332098 L44.6801018,50.9452636 C44.6368062,50.9593265 44.5935107,50.9713804 44.5521831,50.9854433 C44.5344712,50.9914702 44.5147914,50.9974971 44.4970796,51.0015151 C45.1268336,50.3264975 45.6739324,49.4063843 46.1088562,48.3014448 C46.8192975,48.4822531 47.4805392,48.7072589 48.0729015,48.9684265 C47.7186649,49.2938814 47.3388445,49.5912105 46.9373763,49.856396 C46.9314724,49.860414 46.9275364,49.862423 46.9255684,49.8644319 L46.9255684,49.8644319 Z M39.1815622,50.9472726 L39.1461385,50.9352187 C38.9670522,50.8769583 38.7919019,50.8146799 38.6187196,50.7463745 C38.6069117,50.7423566 38.5951038,50.7383386 38.5852639,50.7323117 L38.4376653,50.6720423 C38.4199534,50.6640063 38.4042096,50.6579794 38.3864978,50.6519524 C38.3392662,50.6318626 38.2920347,50.6117728 38.2467711,50.589674 C38.2290593,50.5816381 38.2093795,50.5736022 38.1916676,50.5655663 C38.1464041,50.5454764 38.0991725,50.5233777 38.0539089,50.5012789 C38.0361971,50.493243 38.0165173,50.483198 37.9988055,50.4751621 C37.9535419,50.4530633 37.9082783,50.4309645 37.8630148,50.4068568 C37.8453029,50.3968119 37.8275911,50.3887759 37.8098793,50.3787311 L37.6740886,50.3064077 C37.6583447,50.2983718 37.6406329,50.2883269 37.624889,50.280291 C37.5776575,50.2541742 37.5323939,50.2300665 37.4871303,50.2039497 C37.4713865,50.1959138 37.4576106,50.1878779 37.4418668,50.177833 C37.3946352,50.1517162 37.3474037,50.1235905 37.3021401,50.0954647 C37.2903322,50.0874288 37.2765563,50.0793929 37.2647485,50.073366 C37.2155489,50.0432312 37.1683174,50.0151055 37.1191179,49.9849708 C37.1092779,49.9789439 37.101406,49.9729169 37.0915661,49.9688989 C37.0403986,49.9367553 36.9892311,49.9026026 36.9380636,49.8704589 C36.9360956,49.8684499 36.9321596,49.8664409 36.9301916,49.8644319 C36.5287235,49.5972375 36.1508711,49.3019173 35.7966344,48.9764624 C36.3889968,48.7152949 37.0502385,48.490289 37.7606797,48.3094807 C38.1936356,49.4144202 38.7427024,50.3345335 39.3724564,51.009551 C39.3547445,51.0035241 39.3350647,50.9974971 39.3173529,50.9934792 C39.2661854,50.9733894 39.2228898,50.9593265 39.1815622,50.9472726 L39.1815622,50.9472726 Z M34.8421635,47.963936 C34.8126438,47.9277744 34.7831241,47.8896037 34.7536044,47.8534421 C34.7378605,47.8333523 34.7221167,47.8152715 34.7083408,47.7951816 C34.6807891,47.761029 34.6552053,47.7248673 34.6296215,47.6907146 C34.6119097,47.6686159 34.5961659,47.6465171 34.5784541,47.6224093 C34.5528703,47.5882566 34.5292545,47.5541039 34.5036707,47.5199513 C34.4859589,47.4958435 34.4682471,47.4717357 34.4505353,47.445619 L34.3796879,47.343161 L34.3265524,47.2648107 C34.3049047,47.230658 34.2812889,47.1965054 34.2596411,47.1623527 C34.2419292,47.1362359 34.2242174,47.1081102 34.2084736,47.0819934 C34.1868258,47.0478408 34.165178,47.0136881 34.1454982,46.9795354 C34.1277863,46.9514097 34.1120425,46.9232839 34.0943306,46.8951582 C34.0746508,46.8610055 34.053003,46.8268529 34.0333232,46.7927002 C34.0156114,46.7645745 33.9998676,46.7344397 33.9841237,46.706314 C33.9644439,46.6721613 33.9447641,46.6380087 33.9270522,46.603856 C33.9113084,46.5737213 33.8955645,46.5455955 33.8778527,46.5154608 C33.8601409,46.4813082 33.8404611,46.4471555 33.8227492,46.4130028 L33.7755177,46.3225987 C33.7578059,46.288446 33.740094,46.2542933 33.7223822,46.2181317 C33.7066383,46.187997 33.6928625,46.1558532 33.6771186,46.1257186 C33.6594068,46.0915659 33.6436629,46.0554042 33.6279191,46.0212515 C33.6121752,45.9891079 33.5983994,45.9569642 33.5846235,45.9248205 C33.5688796,45.8906678 33.5531358,45.8565151 33.537392,45.8203535 C33.5236161,45.7882098 33.5098402,45.7540571 33.4940964,45.7219134 C33.4803205,45.6877607 33.4645767,45.6536081 33.4508008,45.6194554 C33.4370249,45.5832937 33.4212811,45.5471321 33.4075052,45.5109704 C33.3937293,45.4788267 33.3819215,45.446683 33.3681456,45.4145393 C33.3425618,45.348243 33.3169781,45.2799376 33.2933623,45.2116323 C33.2835224,45.1814975 33.2717145,45.1513628 33.2618746,45.1212281 L33.220547,45.0006893 C33.2107071,44.9685456 33.1988992,44.9364019 33.1890593,44.9022492 C33.1772514,44.8640786 33.1634755,44.8259079 33.1516676,44.7877373 C33.1418277,44.7535846 33.1319878,44.7214409 33.1221479,44.6872882 C33.11034,44.6491176 33.0985322,44.610947 33.0886922,44.5727763 C33.0788523,44.5386237 33.0709804,44.504471 33.0611405,44.4703183 C33.0513006,44.4321477 33.0394927,44.3939771 33.0296528,44.3537974 C33.0217809,44.3196447 33.011941,44.2854921 33.004069,44.2513394 C32.9942291,44.2131688 32.9843892,44.1729892 32.9765173,44.1348185 L32.9529015,44.0323605 C32.9450296,43.9921809 32.9351897,43.9540102 32.9273178,43.9138306 C32.9194458,43.879678 32.9135419,43.8455253 32.90567,43.8093636 C32.897798,43.769184 32.8899261,43.7290044 32.8840222,43.6908337 C32.8781182,43.6566811 32.8722143,43.6205194 32.8663104,43.5863667 C32.8604064,43.5461871 32.8525345,43.5060075 32.8466305,43.4658279 C32.8407266,43.4316752 32.8367906,43.3955136 32.8308867,43.3613609 C32.8249827,43.3211813 32.8190788,43.2789927 32.8131749,43.238813 C32.8092389,43.2046604 32.8033349,43.1705077 32.799399,43.136355 C32.793495,43.0941664 32.7895591,43.0519778 32.7856231,43.0097892 C32.7816872,42.9756366 32.7777512,42.9414839 32.7757832,42.9073312 L32.7639753,42.7747385 C32.7620073,42.7425948 32.7580714,42.7084421 32.7561034,42.6762984 C32.7521674,42.6300918 32.7501994,42.5838853 32.7482315,42.5376787 C32.7462635,42.5155799 32.7462635,42.4914722 32.7442955,42.4693734 L36.680258,42.4693734 C36.7215856,44.3015639 36.999071,45.9931258 37.4536747,47.4375831 C36.5976028,47.658571 35.8104103,47.9418373 35.1157129,48.2773371 C35.0291218,48.178897 34.9444986,48.078448 34.8598754,47.9779989 C34.8520034,47.9779989 34.8460995,47.971972 34.8421635,47.963936 L34.8421635,47.963936 Z M36.9321596,34.1019681 C36.9833271,34.0678154 37.0344947,34.0356717 37.0856622,34.003528 C37.0955021,33.9975011 37.103374,33.9914741 37.1132139,33.9854472 C37.1604455,33.9553125 37.209645,33.9251777 37.2588445,33.897052 C37.2706524,33.8890161 37.2844283,33.8809802 37.2962362,33.8749532 C37.3434677,33.8468275 37.3906993,33.8207107 37.4359628,33.792585 C37.4517067,33.7845491 37.4654825,33.7745042 37.4812264,33.7664682 C37.52649,33.7403515 37.5737215,33.7142347 37.6189851,33.690127 C37.634729,33.6800821 37.6524408,33.6720461 37.6681846,33.6640102 L37.8039753,33.5916869 C37.8216872,33.581642 37.839399,33.5736061 37.8571108,33.5635612 C37.9023744,33.5414624 37.947638,33.5173546 37.9929015,33.4952558 C38.0106134,33.4872199 38.0302932,33.477175 38.048005,33.4691391 C38.0932686,33.4470403 38.1385321,33.4249415 38.1857637,33.4048517 C38.2034755,33.3968158 38.2231553,33.3887798 38.2408672,33.3807439 C38.2880987,33.3606541 38.3353303,33.3385553 38.3805938,33.3184655 C38.3983057,33.3104296 38.4140495,33.3044027 38.4317613,33.2963667 C38.4809609,33.2762769 38.5301604,33.2541781 38.5793599,33.2360973 C38.5911678,33.2320793 38.6029757,33.2260524 38.6147836,33.2220344 C38.787966,33.1537291 38.9631163,33.0914507 39.1402346,33.0331902 L39.1756583,33.0211364 C39.2189538,33.0070735 39.2622494,32.9950196 39.305545,32.9809567 C39.3232569,32.9749298 39.3409687,32.9689029 39.3606485,32.9648849 C38.7308945,33.6399025 38.1837957,34.5600157 37.7488718,35.6649552 C37.0384306,35.4841469 36.3771889,35.2591411 35.7848266,34.9979735 C36.1390632,34.6725186 36.5188836,34.3751895 36.9183837,34.110004 C36.9262557,34.105986 36.9301916,34.103977 36.9321596,34.1019681 L36.9321596,34.1019681 Z M44.6781339,33.0191274 L44.7135575,33.0311813 C44.8906758,33.0894417 45.0677941,33.1517201 45.2409765,33.2200255 C45.2527844,33.2240434 45.2645923,33.2300704 45.2764002,33.2340883 L45.4239987,33.2943577 C45.4417106,33.3023937 45.4594224,33.3084206 45.4751663,33.3164565 C45.5223978,33.3365464 45.5696294,33.3566362 45.6148929,33.3787349 C45.6326048,33.3867709 45.6522846,33.3948068 45.6699964,33.4028427 C45.71526,33.4229325 45.7624915,33.4450313 45.8077551,33.4671301 C45.8254669,33.475166 45.8451467,33.4852109 45.8628586,33.4932469 C45.9081221,33.5153456 45.9533857,33.5374444 46.0006173,33.5615522 C46.0183291,33.5695881 46.0360409,33.579633 46.0537528,33.5876689 C46.0990163,33.6117767 46.1462479,33.6358845 46.1915114,33.6599923 C46.2072553,33.6680282 46.2249671,33.6780731 46.240711,33.686109 C46.2859746,33.7122258 46.3332061,33.7363335 46.3784697,33.7624503 C46.3942135,33.7704862 46.4079894,33.7805311 46.4237332,33.788567 C46.4709648,33.8146838 46.5181963,33.8428095 46.5634599,33.8709353 C46.5752678,33.8789712 46.5890437,33.8870071 46.6008515,33.893034 C46.6500511,33.9231688 46.6972826,33.9512945 46.7464821,33.9814292 C46.7563221,33.9874561 46.764194,33.9934831 46.7740339,33.99951 C46.8252014,34.0316537 46.8763689,34.0658064 46.9275364,34.0979501 C46.9295044,34.0999591 46.9334404,34.1019681 46.9354084,34.103977 C47.3368765,34.3711715 47.7147289,34.6685007 48.0709335,34.9919466 C47.4785712,35.2531141 46.8173295,35.47812 46.1068883,35.6589282 C45.6739324,34.5539888 45.1248656,33.6338755 44.4951116,32.9588579 C44.5128234,32.9648849 44.5305352,32.9689029 44.5482471,32.9749298 C44.5915427,32.9930106 44.6348383,33.0050645 44.6781339,33.0191274 L44.6781339,33.0191274 Z M47.179438,41.4909997 C47.1381104,39.6588091 46.8606251,37.9672473 46.4060214,36.52279 C47.2620932,36.3018021 48.0492858,36.0185358 48.7439831,35.683036 C50.123538,37.2359782 51.0012576,39.2630399 51.1154006,41.4930087 L47.179438,41.4930087 L47.179438,41.4909997 Z M41.4467086,36.1631824 C40.466654,36.1370657 39.520055,36.0325987 38.6364314,35.8618353 C39.3449046,34.1220579 40.3407032,32.9247053 41.4467086,32.6514839 L41.4467086,36.1631824 Z M41.4467086,37.0571789 L41.4467086,41.4909997 L37.5540417,41.4909997 C37.5993053,39.7431863 37.8787586,38.103858 38.3254904,36.7216791 C39.2976731,36.9145413 40.3466071,37.0310622 41.4467086,37.0571789 Z M41.4467086,42.4754003 L41.4467086,46.9092211 C40.3466071,46.9353378 39.2976731,47.0518587 38.3254904,47.2447209 C37.8787586,45.8605331 37.5993053,44.2232137 37.5540417,42.4754003 L41.4467086,42.4754003 L41.4467086,42.4754003 Z M41.4467086,47.8032176 L41.4467086,51.3149161 C40.3407032,51.0416947 39.3449046,49.8443421 38.6364314,48.1045647 C39.522023,47.9338013 40.466654,47.8293343 41.4467086,47.8032176 Z M42.4110195,47.8032176 C43.3910741,47.8293343 44.3376731,47.9338013 45.2212967,48.1045647 C44.5128234,49.8443421 43.5170249,51.0416947 42.4110195,51.3149161 L42.4110195,47.8032176 Z M42.4110195,46.9092211 L42.4110195,42.4754003 L46.3036864,42.4754003 C46.2584228,44.2232137 45.9789695,45.862542 45.5322377,47.2447209 C44.560055,47.0518587 43.511121,46.9353378 42.4110195,46.9092211 L42.4110195,46.9092211 Z M42.4110195,41.4909997 L42.4110195,37.0571789 C43.511121,37.0310622 44.560055,36.9145413 45.5322377,36.7216791 C45.9789695,38.1058669 46.2584228,39.7431863 46.3036864,41.4909997 L42.4110195,41.4909997 Z M42.4110195,36.1631824 L42.4110195,32.6514839 C43.5170249,32.9247053 44.5128234,34.1220579 45.2212967,35.8618353 C44.3357051,36.0325987 43.3910741,36.1370657 42.4110195,36.1631824 L42.4110195,36.1631824 Z M35.1137449,35.681027 C35.8084423,36.0165268 36.5936668,36.2997931 37.4517067,36.520781 C36.997103,37.9652383 36.7215856,39.6588091 36.67829,41.4889907 L32.7423275,41.4889907 C32.8545025,39.2610309 33.7322221,37.2359782 35.1137449,35.681027 Z" id="形状" fill="url(#linearGradient-7)" fill-rule="nonzero" opacity="0.900000036"></path>
            <path d="M23.3856,61.74 C23.8866327,61.74 24.2928,62.1461673 24.2928,62.6472 L24.2924,63.283 L24.8787,63.2835 C25.3901709,63.2835 25.8048,63.6981291 25.8048,64.2096 C25.8048,64.7210709 25.3901709,65.1357 24.8787,65.1357 L24.2924,65.135 L24.2928,65.772 C24.2928,66.2730327 23.8866327,66.6792 23.3856,66.6792 C22.8845673,66.6792 22.4784,66.2730327 22.4784,65.772 L22.4774,65.135 L21.8925,65.1357 C21.3810291,65.1357 20.9664,64.7210709 20.9664,64.2096 C20.9664,63.6981291 21.3810291,63.2835 21.8925,63.2835 L22.4774,63.283 L22.4784,62.6472 C22.4784,62.1461673 22.8845673,61.74 23.3856,61.74 Z" id="形状结合" fill="url(#linearGradient-8)"></path>
            <path d="M70.1568,27.5772 C70.5743273,27.5772 70.9128,27.9156727 70.9128,28.3332 L70.9118,28.8632 L71.40105,28.86345 C71.8272758,28.86345 72.1728,29.2089742 72.1728,29.6352 C72.1728,30.0614258 71.8272758,30.40695 71.40105,30.40695 L70.9118,30.4062 L70.9128,30.9372 C70.9128,31.3547273 70.5743273,31.6932 70.1568,31.6932 C69.7392727,31.6932 69.4008,31.3547273 69.4008,30.9372 L69.3998,30.4062 L68.91255,30.40695 C68.4863242,30.40695 68.1408,30.0614258 68.1408,29.6352 C68.1408,29.2089742 68.4863242,28.86345 68.91255,28.86345 L69.3998,28.8632 L69.4008,28.3332 C69.4008,27.9156727 69.7392727,27.5772 70.1568,27.5772 Z" id="形状结合" fill="url(#linearGradient-9)"></path>
            <path d="M29.4336,29.6352 C29.7676218,29.6352 30.0384,29.9059782 30.0384,30.24 L30.0378,30.6632 L30.429,30.6642 C30.7699806,30.6642 31.0464,30.9406194 31.0464,31.2816 C31.0464,31.6225806 30.7699806,31.899 30.429,31.899 L30.0378,31.8982 L30.0384,32.3232 C30.0384,32.6572218 29.7676218,32.928 29.4336,32.928 C29.0995782,32.928 28.8288,32.6572218 28.8288,32.3232 L28.8278,31.8982 L28.4382,31.899 C28.0972194,31.899 27.8208,31.6225806 27.8208,31.2816 C27.8208,30.9406194 28.0972194,30.6642 28.4382,30.6642 L28.8278,30.6632 L28.8288,30.24 C28.8288,29.9059782 29.0995782,29.6352 29.4336,29.6352 Z" id="形状结合" fill="url(#linearGradient-10)"></path>
        </g>
    </g>
</svg>